<svg xmlns="http://www.w3.org/2000/svg" width="33.173" height="45.574"><defs><clipPath id="a"><path data-name="長方形 117" fill="none" d="M0 0h33.173v45.574H0z"/></clipPath></defs><g data-name="グループ 41" clip-path="url(#a)" fill="#fff"><path data-name="パス 51" d="M11.536 4.571a.705.705 0 00.693-.723L12.163.693a.708.708 0 00-1.415.03l.066 3.155a.708.708 0 00.723.693"/><path data-name="パス 52" d="M5.543 6.78a.708.708 0 10.98-1.022L4.25 3.574a.708.708 0 10-.979 1.022z"/><path data-name="パス 53" d="M4.007 12.542a.708.708 0 00-.159-1.4l-3.155.066a.708.708 0 00.03 1.415l3.155-.066a.7.7 0 00.129-.014"/><path data-name="パス 54" d="M5.759 16.841l-2.185 2.278a.708.708 0 001.022.98l2.184-2.278a.708.708 0 00-1.022-.98"/><path data-name="パス 55" d="M17.244 6.733a.7.7 0 00.367-.2l2.185-2.278a.708.708 0 10-1.022-.98L16.59 5.55a.708.708 0 00.655 1.183"/><path data-name="パス 56" d="M18.8 11.536a.708.708 0 00.723.693l3.155-.066a.708.708 0 10-.03-1.415l-3.155.066a.708.708 0 00-.693.723"/><path data-name="パス 57" d="M29.959 17.358a3.119 3.119 0 00-2.421-.4 3.062 3.062 0 00-1.524.906 3.134 3.134 0 00-5.206-.83 3.133 3.133 0 00-4.957-.695l-1.094-5.288a3.136 3.136 0 10-6.143 1.269l3.354 16.221-1.823-1.46a3.453 3.453 0 10-4.247 5.435c.256.2 3.908 3.1 6.181 5.16a21.354 21.354 0 015.19 6.529 2.229 2.229 0 002.499 1.324l10.967-2.265a2.217 2.217 0 001.721-2.617 6.763 6.763 0 01.2-3.573 13.411 13.411 0 00.448-2.362 34.343 34.343 0 00-.349-7.225v-.045c-.3-2.54-1.343-7.836-1.388-8.067a3.11 3.11 0 00-1.4-2.016m1.378 10.25l.006.045a33.274 33.274 0 01.343 6.938 12.082 12.082 0 01-.407 2.127 8.109 8.109 0 00-.213 4.215.8.8 0 01-.621.944l-10.975 2.265a.812.812 0 01-.9-.488c-1.23-2.921-4.287-5.888-5.543-7.028s-2.885-2.493-4.04-3.437a173.04 173.04 0 00-1.588-1.284l-.47-.375c-.071-.056-.138-.109-.205-.154a2.037 2.037 0 112.5-3.21l.017.014 3.363 2.7a.708.708 0 001.137-.694l-3.748-18.153a1.721 1.721 0 113.37-.7l1.623 7.858.145.7 1.09 5.28a.708.708 0 101.387-.286l-1.091-5.281-.145-.7a1.721 1.721 0 113.37-.7l.321 1.551.115.558.8 3.869a.708.708 0 101.386-.286l-.8-3.87-.115-.546a1.721 1.721 0 113.37-.7l.4 1.918.008.037.511 2.473a.708.708 0 101.386-.287l-.511-2.472-.008-.037a1.766 1.766 0 011.264-2.076 1.721 1.721 0 012.091 1.318c.011.055 1.076 5.468 1.37 7.953"/></g></svg>