<svg width="64" height="69" fill="none" xmlns="http://www.w3.org/2000/svg"><path d="M32 0C14.334 0 0 9.936 0 22.179 0 41.893 32 69 32 69s32-27.107 32-46.821C64 9.936 49.666 0 32 0zm0 34.5c-2.532 0-5.006-.578-7.111-1.661-2.105-1.083-3.746-2.623-4.715-4.424-.968-1.801-1.222-3.783-.728-5.695.494-1.912 1.713-3.669 3.503-5.047 1.79-1.379 4.07-2.317 6.554-2.698 2.483-.38 5.056-.185 7.395.561 2.34.746 4.338 2.01 5.745 3.63 1.406 1.622 2.157 3.527 2.157 5.477-.004 2.613-1.353 5.119-3.753 6.967-2.4 1.848-5.653 2.887-9.047 2.89z" fill="#F24E1E"/></svg>