<svg width="54" height="54" fill="none" xmlns="http://www.w3.org/2000/svg"><path d="M45.457 33.813c-.105-.38.127-.907.348-1.286a3.54 3.54 0 01.222-.327 17.086 17.086 0 002.91-9.524c.032-9.724-8.173-17.613-18.32-17.613-8.848 0-16.231 6.022-17.96 14.016a16.956 16.956 0 00-.39 3.607c0 9.735 7.888 17.835 18.034 17.835 1.614 0 3.787-.485 4.978-.812a33.432 33.432 0 002.68-.875 2.788 2.788 0 012.045.031l5.98 2.12c.132.056.27.091.412.106a.844.844 0 00.844-.844 1.358 1.358 0 00-.053-.285l-1.73-6.149z" stroke="#F24E1E" stroke-width="1.875" stroke-miterlimit="10" stroke-linecap="round"/><path d="M7.01 24.469a15.423 15.423 0 00.673 16.102c.244.368.381.653.339.843-.042.191-1.258 6.526-1.258 6.526a.844.844 0 00.286.81c.154.123.346.19.544.188.105 0 .21-.022.307-.064l5.928-2.32a1.658 1.658 0 011.266.021c1.997.778 4.206 1.266 6.415 1.266a16.79 16.79 0 008.443-2.267" stroke="#F24E1E" stroke-width="1.875" stroke-miterlimit="10" stroke-linecap="round"/></svg>