<svg width="37" height="37" fill="none" xmlns="http://www.w3.org/2000/svg"><g filter="url(#filter0_d_1623_2345)" stroke="#F24E1E" stroke-width="1.875" stroke-linecap="round" stroke-linejoin="round"><path d="M5.465 18.318l-.276-.477a1.405 1.405 0 01.514-1.92l5.09-2.935a.936.936 0 011.283.344l.744 1.289a.937.937 0 01-.343 1.28l-5.089 2.934a1.41 1.41 0 01-1.923-.515z"/><path d="M10.601 27.25l5.633-12.187m2.817-.937l5.669 11.249M13.126 15.163l-1.38-2.386a1.407 1.407 0 01.515-1.92l7.293-4.205a.937.937 0 011.282.344l1.85 3.198a.937.937 0 01-.342 1.28l-7.295 4.203a1.405 1.405 0 01-1.923-.514zm10.03-4.19L20.43 6.26a1.406 1.406 0 01.516-1.92l5.466-3.152a1.41 1.41 0 011.924.515l2.725 4.713a1.406 1.406 0 01-.515 1.92l-5.466 3.152a1.41 1.41 0 01-1.925-.515z"/></g><defs><filter id="filter0_d_1623_2345" x=".063" y=".063" width="36.125" height="36.125" filterUnits="userSpaceOnUse" color-interpolation-filters="sRGB"><feFlood flood-opacity="0" result="BackgroundImageFix"/><feColorMatrix in="SourceAlpha" values="0 0 0 0 0 0 0 0 0 0 0 0 0 0 0 0 0 0 127 0" result="hardAlpha"/><feOffset dy="4"/><feGaussianBlur stdDeviation="2"/><feComposite in2="hardAlpha" operator="out"/><feColorMatrix values="0 0 0 0 0 0 0 0 0 0 0 0 0 0 0 0 0 0 0.25 0"/><feBlend in2="BackgroundImageFix" result="effect1_dropShadow_1623_2345"/><feBlend in="SourceGraphic" in2="effect1_dropShadow_1623_2345" result="shape"/></filter></defs></svg>