<svg width="41" height="57" fill="none" xmlns="http://www.w3.org/2000/svg"><path d="M41 6.107a6.092 6.092 0 00-1.803-4.316A6.178 6.178 0 0034.85 0H6.15a6.178 6.178 0 00-4.347 1.79A6.092 6.092 0 000 6.108v44.786a6.092 6.092 0 001.803 4.316A6.178 6.178 0 006.15 57h28.7a6.178 6.178 0 004.347-1.79A6.092 6.092 0 0041 50.892V6.107zM9.225 50.893a3.09 3.09 0 01-1.708-.515 3.058 3.058 0 01-1.133-1.37 3.034 3.034 0 01.667-3.328 3.095 3.095 0 013.351-.662 3.071 3.071 0 011.38 1.125 3.038 3.038 0 01-.383 3.855 3.086 3.086 0 01-2.174.895zm0-10.179a3.09 3.09 0 01-1.708-.514 3.059 3.059 0 01-1.133-1.37 3.034 3.034 0 01.667-3.328 3.096 3.096 0 013.351-.662 3.071 3.071 0 011.38 1.124 3.039 3.039 0 01-.383 3.856 3.086 3.086 0 01-2.174.894zm0-10.178a3.09 3.09 0 01-1.708-.515 3.058 3.058 0 01-1.133-1.37 3.034 3.034 0 01.667-3.328 3.096 3.096 0 013.351-.662 3.07 3.07 0 011.38 1.125 3.038 3.038 0 01-.383 3.855 3.086 3.086 0 01-2.174.895zM20.5 50.893a3.09 3.09 0 01-1.708-.515 3.057 3.057 0 01-1.133-1.37 3.033 3.033 0 01.667-3.328 3.094 3.094 0 013.351-.662 3.07 3.07 0 011.38 1.125 3.038 3.038 0 01-.383 3.855 3.086 3.086 0 01-2.174.895zm0-10.179a3.09 3.09 0 01-1.708-.514 3.059 3.059 0 01-1.133-1.37 3.033 3.033 0 01.667-3.328 3.095 3.095 0 013.351-.662 3.07 3.07 0 011.38 1.124 3.039 3.039 0 01-.383 3.856 3.086 3.086 0 01-2.174.894zm0-10.178a3.09 3.09 0 01-1.708-.515 3.057 3.057 0 01-1.133-1.37 3.033 3.033 0 01.667-3.328 3.095 3.095 0 013.351-.662 3.07 3.07 0 011.38 1.125 3.038 3.038 0 01-.383 3.855 3.086 3.086 0 01-2.174.895zm14.35 17.303c0 .81-.324 1.587-.9 2.16a3.086 3.086 0 01-4.35 0 3.043 3.043 0 01-.9-2.16V37.661c0-.81.324-1.587.9-2.16a3.086 3.086 0 014.35 0c.576.573.9 1.35.9 2.16v10.178zm-3.075-17.303a3.09 3.09 0 01-1.708-.515 3.057 3.057 0 01-1.133-1.37 3.033 3.033 0 01.667-3.328 3.095 3.095 0 013.351-.662 3.07 3.07 0 011.38 1.125 3.038 3.038 0 01-.383 3.855 3.086 3.086 0 01-2.174.895zm2.474-12.811a2.057 2.057 0 01-1.449.596H8.2a2.057 2.057 0 01-1.45-.596c-.384-.382-.6-.9-.6-1.44V8.144c0-.54.216-1.058.6-1.44a2.057 2.057 0 011.45-.596h24.6c.544 0 1.065.215 1.45.596.384.382.6.9.6 1.44v8.143a2.03 2.03 0 01-.6 1.439z" fill="#F24E1E"/></svg>