<svg width="53" height="45" fill="none" xmlns="http://www.w3.org/2000/svg"><path d="M49.25 11.864L27.83 1.31a3.016 3.016 0 00-2.665 0L3.745 11.864A4.901 4.901 0 001 16.243v22.592c0 2.703 2.224 4.895 4.967 4.895h41.066c2.743 0 4.967-2.192 4.967-4.895V16.243a4.89 4.89 0 00-2.75-4.379z" stroke="#fff" stroke-width="1.875" stroke-linecap="round" stroke-linejoin="round"/><path d="M44.591 36.838l-16.24-12.599a3.02 3.02 0 00-3.701 0L8.409 36.838m25.127-9.148l17.086-12.906m-48.244 0L19.841 27.94" stroke="#fff" stroke-width="1.875" stroke-linecap="round" stroke-linejoin="round"/></svg>