<svg width="38" height="53" fill="none" xmlns="http://www.w3.org/2000/svg"><path d="M35.254 43.666c-1.147-2.035-4.348-5.427-5.954-6.881-2.092-1.892-2.264-2.047-4.563-1.154-1.534.595-2.613 1.208-4.016.48-1.402-.728-4.147-3.412-6.204-7.018-2.057-3.607-3.036-7.461-2.946-9.034.09-1.573 1.18-2.172 2.469-3.19 1.816-1.435 1.799-1.763 1.338-4.502-.36-2.131-1.713-6.6-2.884-8.62-1.25-2.17-1.332-1.87-2.565-1.714a16.6 16.6 0 00-2.96.665c-1.892.622-3.022 1.26-4.008 2.415-.986 1.155-2.12 4.188-.519 10.892 1.602 6.705 3.031 10.3 6.408 16.223 3.376 5.922 6.268 9.403 10.692 13.778 5.474 5.406 8.15 5.383 9.651 5.13 1.501-.254 2.63-.889 4.134-2.195a16.498 16.498 0 002.09-2.198c.764-.976 1.063-.893-.163-3.077z" stroke="#fff" stroke-width="1.875" stroke-miterlimit="10"/></svg>