<svg version="1.1" id="_x32_" xmlns="http://www.w3.org/2000/svg" x="0" y="0" viewBox="0 0 512 512" style="width:256px;height:256px" xml:space="preserve" opacity="1"><style>.st0{fill:#4b4b4b}</style><path class="st0" d="M424.154 133.902H369.23l40.607-30.427L341.98 52.62l-67.856 50.855 40.607 30.427H197.27l40.607-30.427-67.85-50.855-67.856 50.855 40.607 30.427H87.846C39.323 133.909.014 173.224 0 221.747v174.089a29.06 29.06 0 0029.062 29.062h38.166c-.047.649-.196 1.264-.196 1.92 0 17.988 14.575 32.563 32.563 32.563 17.982 0 32.562-14.575 32.562-32.563 0-.656-.149-1.271-.196-1.92h19.09c-.047.649-.196 1.264-.196 1.92 0 17.988 14.575 32.563 32.563 32.563 17.981 0 32.563-14.575 32.563-32.563 0-.656-.149-1.271-.196-1.92h80.437c-.041.649-.196 1.264-.196 1.92 0 17.988 14.574 32.563 32.563 32.563 17.981 0 32.563-14.575 32.563-32.563 0-.656-.156-1.271-.196-1.92h19.09c-.041.649-.197 1.264-.197 1.92 0 17.988 14.575 32.563 32.563 32.563 17.982 0 32.563-14.575 32.563-32.563 0-.656-.155-1.271-.196-1.92h38.16a29.077 29.077 0 0020.551-8.511 29.063 29.063 0 008.511-20.551V221.747c-.015-48.523-39.324-87.838-87.847-87.845zm-111.113-30.427l28.939-21.7 28.947 21.7-28.947 21.693-28.939-21.693zm-171.96 0l28.946-21.7 28.94 21.7-28.94 21.693-28.946-21.693zm338.511 289.022H32.408v-170.75c0-15.358 6.172-29.122 16.238-39.201 10.079-10.066 23.842-16.238 39.201-16.244h336.308c15.359.007 29.115 6.179 39.201 16.244 10.059 10.079 16.231 23.843 16.238 39.201v170.75z" fill="#df5656"/><path class="st0" fill="#df5656" d="M98.027 240.189h58.324v116.656H98.027zm119.894 0h68.052v58.331h-68.052zm128 0h68.052v58.331h-68.052z"/></svg>