<svg width="59" height="51" fill="none" xmlns="http://www.w3.org/2000/svg"><path d="M39.281 10.287v38.997M19.594 1v39M37.267 9.896L21.607 1.39A5.027 5.027 0 0019.6 1a5.004 5.004 0 00-1.995.431L2.163 10.227a2.082 2.082 0 00-.85.684 1.65 1.65 0 00-.313.957V46.2c0 .32.097.635.283.914.186.278.453.512.776.677a2.48 2.48 0 001.069.265 2.51 2.51 0 001.084-.215l13.373-7.404a5.006 5.006 0 012.013-.432 5.023 5.023 0 012.02.404l15.294 8.473a5.02 5.02 0 002.003.405 5.012 5.012 0 001.999-.418l15.781-8.814c.356-.156.654-.393.862-.683.208-.291.318-.625.318-.965V4.085c0-.32-.097-.635-.283-.914a2.041 2.041 0 00-.776-.677 2.482 2.482 0 00-1.069-.265 2.51 2.51 0 00-1.084.215L41.266 9.856a5.003 5.003 0 01-1.993.43 5.027 5.027 0 01-2.005-.39z" stroke="#F24E1E" stroke-width="1.875" stroke-linecap="round" stroke-linejoin="round"/></svg>