<svg width="43" height="67" fill="none" xmlns="http://www.w3.org/2000/svg"><path d="M21.5 0C9.63 0 0 9.648 0 21.536 0 40.678 21.5 67 21.5 67S43 40.678 43 21.536C43 9.648 33.37 0 21.5 0zm0 33.5c-1.7 0-3.364-.561-4.778-1.613-1.414-1.052-2.517-2.547-3.167-4.296a10.58 10.58 0 01-.49-5.53c.332-1.856 1.151-3.562 2.354-4.9 1.203-1.34 2.735-2.25 4.403-2.62a7.793 7.793 0 014.97.545c1.57.724 2.914 1.95 3.859 3.525a10.356 10.356 0 011.449 5.317c-.003 2.538-.91 4.971-2.522 6.765-1.612 1.795-3.798 2.804-6.078 2.807z" fill="#F24E1E"/></svg>