<svg fill="none" height="30" width="29" xmlns="http://www.w3.org/2000/svg"><path d="M14.5 0C6.505 0 0 6.73 0 15s6.505 15 14.5 15S29 23.27 29 15 22.495 0 14.5 0zm5.207 18.232c-.654.825-1.84 2.144-4.58 4.068a1.085 1.085 0 01-1.255 0c-2.74-1.924-3.926-3.245-4.58-4.068-1.394-1.757-2.062-3.562-2.043-5.517.022-2.24 1.758-4.062 3.871-4.062 1.423 0 2.44.767 3.075 1.472a.419.419 0 00.304.135.406.406 0 00.304-.135c.635-.705 1.652-1.472 3.074-1.472 2.113 0 3.85 1.823 3.87 4.062.022 1.955-.647 3.76-2.04 5.517z" fill="#f24e1e"/></svg>