<svg width="53" height="82" fill="none" xmlns="http://www.w3.org/2000/svg"><path d="M2.851 81.548c-.333-.334-.5-1.042-.5-2.125 0-1 .167-1.5.5-1.5.75 0 1.792-.125 3.125-.375a24.635 24.635 0 003.75-1c1.167-.417 1.792-.792 1.875-1.125.5-2 .75-4.375.75-7.125v-45c0-2.584-.083-4.584-.25-6-.166-1.5-.666-2.25-1.5-2.25-.583 0-1.708.458-3.375 1.375a226.6 226.6 0 00-4.625 2.75c-.5-.25-1-.709-1.5-1.375-.5-.75-.75-1.334-.75-1.75 0-.334.084-.584.25-.75C14.685 5.714 21.893.923 22.226.923h.25c.667 0 1.167.791 1.5 2.375-.833 2.583-1.25 6.5-1.25 11.75v49.25c0 2.416.084 4.541.25 6.375.167 1.833.417 3.416.75 4.75.167.333.792.708 1.875 1.125 1.167.416 2.417.75 3.75 1 1.334.25 2.25.375 2.75.375.334 0 .5.75.5 2.25 0 .833-.041 1.291-.125 1.375-4.166-.167-7.5-.292-10-.375-2.5-.167-4.208-.25-5.125-.25-.666 0-2.208.083-4.625.25-2.416.083-5.708.208-9.875.375z" fill="#00890E"/></svg>