<svg width="53" height="82" fill="none" xmlns="http://www.w3.org/2000/svg"><path d="M1.726 80.68c-.333 0-.666-.458-1-1.375-.25-1-.375-1.792-.375-2.375 6.084-6.167 11.625-12.5 16.625-19s9-12.75 12-18.75c3-6.083 4.5-11.375 4.5-15.875s-1.125-7.958-3.375-10.375c-2.25-2.5-5.208-3.75-8.875-3.75-6.916 0-12.458 3.459-16.625 10.375-.5 0-1.041-.25-1.625-.75-.5-.583-.75-1-.75-1.25.25-1 .959-2.416 2.125-4.25 1.25-1.916 2.875-3.833 4.875-5.75 2.084-2 4.542-3.666 7.375-5C19.435 1.14 22.643.43 26.226.43c3.75 0 6.959.959 9.625 2.875 2.667 1.917 4.709 4.459 6.125 7.625 1.5 3.084 2.25 6.375 2.25 9.875 0 3.917-.791 7.875-2.375 11.875-1.583 3.917-3.666 7.75-6.25 11.5a113.59 113.59 0 01-8.125 10.75 187.274 187.274 0 01-8.5 9.125c-2.75 2.667-5.083 4.917-7 6.75-.25.417-.166.708.25.875h24.125c2.334 0 4-.667 5-2 1.084-1.333 2.167-3.875 3.25-7.625.417-.916 1-1.375 1.75-1.375 1.167 0 1.917.167 2.25.5-2 9.833-3.125 15.667-3.375 17.5-.083 1.333-.916 2-2.5 2h-41z" fill="#00890E"/></svg>