<svg width="33" height="82" viewBox="0 0 33 82" fill="none" xmlns="http://www.w3.org/2000/svg">
<path d="M2.85125 81.5476C2.51792 81.2143 2.35125 80.5059 2.35125 79.4226C2.35125 78.4226 2.51792 77.9226 2.85125 77.9226C3.60125 77.9226 4.64292 77.7976 5.97625 77.5476C7.30959 77.2976 8.55959 76.9643 9.72625 76.5476C10.8929 76.1309 11.5179 75.7559 11.6013 75.4226C12.1013 73.4226 12.3513 71.0476 12.3513 68.2976V23.2976C12.3513 20.7143 12.2679 18.7143 12.1013 17.2976C11.9346 15.7976 11.4346 15.0476 10.6013 15.0476C10.0179 15.0476 8.89292 15.5059 7.22625 16.4226C5.64292 17.3393 4.10125 18.2559 2.60125 19.1726C2.10125 18.9226 1.60125 18.4643 1.10125 17.7976C0.601254 17.0476 0.351254 16.4643 0.351254 16.0476C0.351254 15.7143 0.434587 15.4643 0.601254 15.2976C14.6846 5.71427 21.8929 0.922607 22.2263 0.922607H22.4763C23.1429 0.922607 23.6429 1.71427 23.9763 3.29761C23.1429 5.88094 22.7263 9.79761 22.7263 15.0476V64.2976C22.7263 66.7143 22.8096 68.8393 22.9763 70.6726C23.1429 72.5059 23.3929 74.0893 23.7263 75.4226C23.8929 75.7559 24.5179 76.1309 25.6013 76.5476C26.7679 76.9643 28.0179 77.2976 29.3513 77.5476C30.6846 77.7976 31.6013 77.9226 32.1013 77.9226C32.4346 77.9226 32.6013 78.6726 32.6013 80.1726C32.6013 81.0059 32.5596 81.4643 32.4763 81.5476C28.3096 81.3809 24.9763 81.2559 22.4763 81.1726C19.9763 81.0059 18.2679 80.9226 17.3513 80.9226C16.6846 80.9226 15.1429 81.0059 12.7263 81.1726C10.3096 81.2559 7.01792 81.3809 2.85125 81.5476Z" fill="#00890E"/>
</svg>
