<svg width="49" height="81" viewBox="0 0 49 81" fill="none" xmlns="http://www.w3.org/2000/svg">
<path d="M1.72625 80.6802C1.39292 80.6802 1.05959 80.2218 0.726254 79.3052C0.476254 78.3052 0.351254 77.5135 0.351254 76.9302C6.43459 70.7635 11.9763 64.4302 16.9763 57.9302C21.9763 51.4302 25.9763 45.1802 28.9763 39.1802C31.9763 33.0968 33.4763 27.8052 33.4763 23.3052C33.4763 18.8052 32.3513 15.3468 30.1013 12.9302C27.8513 10.4302 24.8929 9.18018 21.2263 9.18018C14.3096 9.18018 8.76792 12.6385 4.60125 19.5552C4.10125 19.5552 3.55959 19.3052 2.97625 18.8052C2.47625 18.2218 2.22625 17.8052 2.22625 17.5552C2.47625 16.5552 3.18459 15.1385 4.35125 13.3052C5.60125 11.3885 7.22625 9.47184 9.22625 7.55518C11.3096 5.55518 13.7679 3.88851 16.6013 2.55518C19.4346 1.13851 22.6429 0.430176 26.2263 0.430176C29.9763 0.430176 33.1846 1.38851 35.8513 3.30518C38.5179 5.22184 40.5596 7.76351 41.9763 10.9302C43.4763 14.0135 44.2263 17.3052 44.2263 20.8052C44.2263 24.7218 43.4346 28.6802 41.8513 32.6802C40.2679 36.5968 38.1846 40.4302 35.6013 44.1802C33.1013 47.9302 30.3929 51.5135 27.4763 54.9302C24.5596 58.2635 21.7263 61.3052 18.9763 64.0552C16.2263 66.7218 13.8929 68.9718 11.9763 70.8052C11.7263 71.2218 11.8096 71.5135 12.2263 71.6802H36.3513C38.6846 71.6802 40.3513 71.0135 41.3513 69.6802C42.4346 68.3468 43.5179 65.8052 44.6013 62.0552C45.0179 61.1385 45.6013 60.6802 46.3513 60.6802C47.5179 60.6802 48.2679 60.8468 48.6013 61.1802C46.6013 71.0135 45.4763 76.8468 45.2263 78.6802C45.1429 80.0135 44.3096 80.6802 42.7263 80.6802H1.72625Z" fill="#00890E"/>
</svg>
