<svg width="48" height="82" viewBox="0 0 48 82" fill="none" xmlns="http://www.w3.org/2000/svg">
<path d="M18.0388 81.8125C10.9554 81.8125 5.53875 80.5625 1.78875 78.0625C0.95542 77.4792 0.538754 76.2708 0.538754 74.4375C0.538754 70.5208 2.08042 68.5625 5.16375 68.5625C6.41375 68.5625 7.53875 69.1875 8.53875 70.4375C9.53875 71.6042 10.8721 72.8542 12.5388 74.1875C14.9554 75.9375 18.1221 76.8125 22.0388 76.8125C25.7054 76.8125 28.9971 75.3958 31.9138 72.5625C34.9138 69.6458 36.4138 65.0208 36.4138 58.6875C36.4138 55.3542 35.6638 52.3958 34.1638 49.8125C32.7471 47.1458 30.8304 45.0208 28.4138 43.4375C25.9971 41.8542 23.3721 41.0625 20.5388 41.0625C17.3721 41.0625 14.6638 41.3542 12.4138 41.9375C11.8304 41.2708 11.5388 40.1875 11.5388 38.6875C11.5388 38.1875 11.6221 37.7708 11.7888 37.4375C17.5388 36.4375 22.1221 34.4375 25.5388 31.4375C28.9554 28.4375 30.6638 24.3542 30.6638 19.1875C30.6638 16.3542 29.5388 13.8542 27.2888 11.6875C25.1221 9.4375 22.6221 8.3125 19.7888 8.3125C17.3721 8.3125 15.2888 8.8125 13.5388 9.8125C11.8721 10.7292 10.5388 11.6875 9.53875 12.6875C8.62209 13.6875 7.99709 14.3542 7.66375 14.6875C7.33042 14.6875 6.99709 14.3125 6.66375 13.5625C6.33042 12.7292 6.16375 12.0208 6.16375 11.4375C8.41375 8.10417 10.9554 5.52083 13.7888 3.6875C16.6221 1.85417 20.2888 0.9375 24.7888 0.9375C27.2054 0.9375 29.5804 1.60417 31.9138 2.9375C34.2471 4.27083 36.1638 6.14583 37.6638 8.5625C39.2471 10.9792 40.0388 13.7708 40.0388 16.9375C40.0388 20.6042 39.1221 23.7292 37.2888 26.3125C35.5388 28.8125 32.9971 31.3125 29.6638 33.8125C32.6638 34.8125 35.4971 36.3125 38.1638 38.3125C40.8304 40.3125 42.9971 42.7708 44.6638 45.6875C46.3304 48.5208 47.1638 51.7708 47.1638 55.4375C47.1638 60.6875 45.8721 65.3125 43.2888 69.3125C40.7888 73.2292 37.3304 76.3125 32.9138 78.5625C28.4971 80.7292 23.5388 81.8125 18.0388 81.8125Z" fill="#00890E"/>
</svg>
