<svg width="53" height="82" viewBox="0 0 53 82" fill="none" xmlns="http://www.w3.org/2000/svg">
<path d="M37.4763 81.4453C34.3929 81.4453 32.8513 81.112 32.8513 80.4453V58.9453H1.22625C0.64292 58.2786 0.351254 56.987 0.351254 55.0703L38.2263 1.57031C38.9763 0.570312 39.9346 0.0703125 41.1013 0.0703125C42.1846 0.0703125 42.7263 0.486979 42.7263 1.32031V51.6953H50.4763C51.8096 51.6953 52.4763 53.6953 52.4763 57.6953C52.4763 58.112 52.2263 58.5286 51.7263 58.9453H42.7263V80.8203C42.4763 81.237 40.7263 81.4453 37.4763 81.4453ZM10.1013 51.6953H32.8513V18.4453C32.8513 17.6953 32.6429 17.3203 32.2263 17.3203L32.1013 17.5703L9.35125 50.1953C9.26792 50.2786 9.22625 50.4036 9.22625 50.5703C9.22625 51.3203 9.51792 51.6953 10.1013 51.6953Z" fill="#00890E"/>
</svg>
