<svg width="48" height="82" fill="none" xmlns="http://www.w3.org/2000/svg"><path d="M18.039 81.813c-7.084 0-12.5-1.25-16.25-3.75-.834-.584-1.25-1.792-1.25-3.626 0-3.916 1.541-5.874 4.625-5.874 1.25 0 2.375.624 3.375 1.874 1 1.167 2.333 2.417 4 3.75 2.416 1.75 5.583 2.626 9.5 2.626 3.666 0 6.958-1.417 9.875-4.25 3-2.917 4.5-7.542 4.5-13.876 0-3.333-.75-6.291-2.25-8.874-1.417-2.667-3.334-4.792-5.75-6.376-2.417-1.583-5.042-2.374-7.875-2.374-3.167 0-5.875.291-8.125.874-.584-.666-.875-1.75-.875-3.25 0-.5.083-.916.25-1.25 5.75-1 10.333-3 13.75-6 3.416-3 5.125-7.083 5.125-12.25 0-2.833-1.125-5.333-3.375-7.5-2.167-2.25-4.667-3.374-7.5-3.374-2.417 0-4.5.5-6.25 1.5-1.667.916-3 1.874-4 2.874-.917 1-1.542 1.667-1.875 2-.334 0-.667-.374-1-1.124-.334-.834-.5-1.542-.5-2.126 2.25-3.333 4.791-5.916 7.625-7.75 2.833-1.833 6.5-2.75 11-2.75 2.416 0 4.791.667 7.125 2 2.333 1.334 4.25 3.209 5.75 5.626 1.583 2.416 2.375 5.208 2.375 8.374 0 3.667-.917 6.792-2.75 9.375-1.75 2.5-4.292 5-7.625 7.5 3 1 5.833 2.5 8.5 4.5 2.666 2 4.833 4.459 6.5 7.376 1.666 2.833 2.5 6.083 2.5 9.75 0 5.25-1.292 9.874-3.875 13.874-2.5 3.917-5.959 7-10.375 9.25-4.417 2.167-9.375 3.25-14.875 3.25z" fill="#00890E"/></svg>