<svg id="_レイヤー_1" data-name="レイヤー 1" xmlns="http://www.w3.org/2000/svg" viewBox="0 0 436.15 436.15"><defs><linearGradient id="linear-gradient" x1="315.9" y1="239.44" x2="325.53" y2="194.3" gradientTransform="rotate(-.15 22.848 53.506)" gradientUnits="userSpaceOnUse"><stop offset="0" stop-color="#4e9157"/><stop offset="1" stop-color="#ff6356"/></linearGradient><style>.cls-2,.cls-3{stroke-width:0}.cls-2{fill:#4e9157}.cls-3{fill:#ff6356}</style></defs><path class="cls-2" d="M142.82 272.55c.4-.09.91-.33 1.07-.37.04 0 .1.11.1.12 0 .12-.06 1.53-.06 2.14 0 .61.01 1.06.03 1.44.01.35.25.37.52.45.17.05.24.11.24.19 0 .06-.13.11-.25.11-.08 0-.62-.03-.84-.03-.36 0-.74.05-.92.05-.17 0-.28-.04-.28-.12 0-.07.08-.12.26-.17.25-.07.41-.2.43-.3.03-.15.04-.8.04-1.12 0-.02 0-1.56-.02-1.69-.01-.08-.13-.16-.44-.39-.07-.04-.09-.07-.09-.12 0-.08.1-.16.22-.18zm1.24-1.99c0 .29-.3.53-.52.53-.08 0-.25-.04-.35-.13a.565.565 0 01-.16-.4c0-.1.04-.27.13-.39.11-.1.27-.14.42-.14.29 0 .48.33.48.53zm12.81 1.78c.71 0 1.09-.13 1.46-.13.04 0 .08.04.08.08 0 .13-.17.23-.22.24-.58.13-.77.24-1.25.58-.32.24-.83.75-.87.83-.02.04-.02.08 0 .11.37.45 1.41 1.58 1.75 1.91.2.18.39.31.74.39.18.04.26.13.26.17 0 .11-.14.13-.27.13-.25 0-.79-.06-1.35-.06h-.49c-.15 0-.27-.04-.27-.14 0-.07.1-.12.24-.15.23-.05.26-.15.14-.3s-.68-.74-1.23-1.37c-.11-.13-.22-.25-.27-.25-.04 0-.05.06-.05.09-.05.14-.05 1.18.01 1.5.03.22.11.28.4.36.13.03.24.08.24.16 0 .1-.14.12-.26.12-.27 0-.63-.02-.9-.02-.38 0-.67.04-.91.04-.13 0-.25-.03-.25-.12 0-.08.11-.12.25-.17.43-.11.51-.21.56-.48.04-.21.07-2.28.07-3.71 0-1.4-.04-2-.07-2.28 0-.03-.02-.1-.33-.28-.09-.06-.14-.12-.14-.15 0-.04.05-.11.14-.14.11-.03.65-.15.94-.34.11-.07.16-.1.22-.1.02 0 .09.1.08.14-.05.26-.09 3.05-.09 3.98 0 .42 0 1 .04 1.09.02.06.03.1.09.1.05 0 .14-.08.22-.14.36-.34.95-.89 1.15-1.17.04-.05.08-.16-.41-.24-.06 0-.1-.04-.1-.07 0-.04.11-.2.18-.2h.51zm15.39 2.02c0 .9-.54 1.6-.94 1.86-.43.31-.85.43-1.34.44-.5 0-1.04-.22-1.44-.56-.47-.38-.8-1.11-.81-1.65 0-.82.34-1.34.75-1.69.34-.29.88-.6 1.6-.6 1.07 0 2.17.84 2.17 2.21zm-3.08-1.56c-.28.26-.53.82-.53 1.39 0 .36.05.69.13.96.27.81.89 1.2 1.41 1.2.12 0 .36-.05.66-.36.27-.29.48-.96.48-1.43 0-.56-.13-1.18-.55-1.66-.24-.26-.63-.42-.91-.42-.23 0-.48.12-.7.32zm12.8-.35c.4-.09.91-.33 1.07-.37.04 0 .1.11.1.12 0 .12-.06 1.53-.06 2.14 0 .6.01 1.06.03 1.44.01.35.25.37.52.45.17.05.24.11.24.18 0 .06-.13.11-.25.11-.08 0-.62-.03-.84-.03-.36 0-.74.04-.92.04-.17 0-.28-.04-.28-.12 0-.07.08-.12.26-.17.25-.07.41-.2.43-.31.03-.15.04-.8.04-1.11 0-.02 0-1.56-.02-1.69-.01-.08-.13-.16-.44-.39-.07-.04-.09-.08-.09-.12 0-.07.1-.16.22-.18zm1.23-1.99c0 .29-.3.53-.52.53-.08 0-.25-.04-.35-.13a.565.565 0 01-.16-.4c0-.1.04-.27.13-.39.11-.1.27-.14.42-.14.29 0 .48.33.48.53zm21.06 1.91c.18-.06.57-.21.73-.31.11-.07.21-.12.26-.12s.11.12.11.16c0 .19-.04.44-.04.54 0 .05.05.03.06.03.43-.29 1-.6 1.45-.6.53 0 .83.24.99.41.24.28.38.78.38 1.32 0 .21.03 1.82.04 1.97.02.16.13.3.4.38.21.05.27.11.27.18s-.15.12-.32.12c-.25 0-.5-.02-.8-.02-.27 0-.61.02-.75.02-.1 0-.25-.04-.25-.13 0-.08.12-.14.25-.18.26-.1.31-.18.34-.54.02-.36.03-1.67.03-1.98 0-.39-.2-.7-.33-.8-.12-.09-.44-.2-.69-.2-.48 0-.76.16-.96.35-.03.03-.11.16-.11.26 0 .14 0 2.47.02 2.6.01.15.06.24.4.34.11.03.2.1.2.16 0 .08-.12.13-.27.13h-.66c-.4 0-.71.04-.9.04-.16 0-.28-.04-.28-.14 0-.08.11-.13.23-.16.36-.11.42-.22.45-.61.03-.33.05-1.27.05-2.37 0-.12-.02-.23-.26-.42-.14-.1-.21-.15-.21-.19 0-.07.12-.18.19-.22zm18.42 1.86c0 .9-.54 1.6-.94 1.86-.43.32-.85.43-1.34.44-.5 0-1.04-.23-1.44-.56-.47-.38-.8-1.11-.81-1.65 0-.82.34-1.34.75-1.69.33-.29.87-.6 1.6-.6 1.07 0 2.17.84 2.17 2.2zm-3.08-1.56c-.28.26-.53.83-.53 1.39 0 .36.05.69.13.96.27.81.89 1.2 1.41 1.2.12 0 .36-.05.66-.36.27-.29.48-.96.48-1.43 0-.56-.13-1.18-.55-1.65-.24-.26-.63-.42-.91-.42-.23 0-.48.12-.7.32zm25.47-.64c.12.02.33.11.35.12.02.01.09.09.09.15 0 .19.03.56.03.64 0 .1-.04.2-.13.2-.04 0-.11-.06-.16-.18-.24-.51-.51-.72-.87-.72-.44 0-.65.45-.65.67 0 .37.35.65 1.07 1.05.61.36.85.72.85 1.21 0 .5-.36.87-.63 1.06-.19.13-.57.25-.91.25-.33 0-.87-.09-1.05-.24-.03-.06-.16-.51-.16-.83 0-.12.02-.23.08-.23.09 0 .16.13.23.25.3.55.6.77.99.77.14 0 .31-.08.43-.16.16-.13.25-.39.25-.6 0-.29-.15-.52-.49-.72-.26-.18-.33-.24-.66-.45-.33-.21-.67-.58-.67-1.09 0-.37.18-.72.59-.97.21-.13.5-.23.87-.23.21 0 .43.03.55.06zm12.82.41c.16.23.22.44.22.9 0 .42-.04 1.79-.04 1.91 0 .5.35.54.43.54.04 0 .29-.08.41-.16.03-.02.04 0 .07.03.03.03.04.1.04.11 0 .21-.49.67-.98.67-.25 0-.56-.14-.69-.54 0-.01-.04-.05-.06-.04-.4.28-.87.47-.97.5-.12.04-.38.07-.43.07-.38 0-.75-.46-.75-1 0-.2.09-.4.2-.55.11-.14.27-.19.43-.27.16-.07 1.03-.31 1.27-.38.25-.08.31-.13.31-.2.01-.1.02-.76.02-.89 0-.27-.32-.72-.85-.72-.23 0-.37.07-.44.12-.07.03-.1.23-.08.44 0 .03-.04.1-.06.12-.11.09-.65.36-.7.36-.07 0-.13-.09-.13-.14 0-.31.3-.62.81-.95.31-.23.8-.41 1.01-.41.54 0 .81.27.98.51zm-.71 3.22c.06-.04.13-.25.13-.27.02-.26.02-.63.02-.84 0-.03-.04-.09-.09-.09-.3 0-.82.19-1.11.33-.11.08-.22.15-.22.41 0 .48.46.65.68.65.16 0 .38-.08.58-.19zm13.56-3.66s.12.05.12.09c0-.03.03.27.03.41 0 .1-.2.12-.28.12h-1.18c-.06 0-.1.06-.1.08-.01.22-.02 1.81-.02 2.33 0 .27.07.41.18.53.21.18.43.2.66.2.14 0 .37-.07.53-.16.1-.05.12-.06.16-.06.01 0 .06.02.06.12 0 .09-.07.2-.15.27-.29.28-.67.48-1.16.48-.44 0-.83-.27-.95-.5-.12-.18-.14-.41-.14-.71 0-.4.04-2.02.04-2.4 0-.08-.2-.15-.41-.22-.09-.03-.15-.09-.15-.12 0-.04.03-.09.06-.12.38-.3.71-.56.86-.75.13-.15.21-.24.25-.24.05 0 .15.1.15.12v.51c0 .03.04.09.09.09.24 0 1.29-.05 1.33-.05zm13.92 2.07c0 .9-.54 1.6-.94 1.87-.43.32-.85.44-1.34.44-.5 0-1.04-.23-1.44-.56-.47-.38-.8-1.11-.81-1.65 0-.82.34-1.34.75-1.69.34-.29.88-.6 1.6-.6 1.07 0 2.17.84 2.17 2.2zm-3.08-1.57c-.28.26-.53.83-.53 1.39 0 .36.05.69.13.96.27.81.89 1.2 1.41 1.2.12 0 .36-.06.66-.36.27-.29.48-.96.48-1.43 0-.56-.13-1.18-.55-1.65-.24-.26-.63-.42-.91-.42-.23 0-.48.12-.7.32zM106.2 219.84c-.09.07-.54.71-.56.79-5.1 7.93-5.68 8.79-10.21 15.65-1.04 1.78-1.27 2.35-1.34 2.64-.21.78-.08 4.06-.27 4.78-.53 2-2.3 3.28-4.29 3.29-5.92.02-10.89-8.67-8.44-21.37.44-2.21 2.78-11.85 3.1-13.85.83-4.99.42-6.42-.54-10.05 5.38.41 7.73 3.12 8.58 4.47.47.64 1.25 1.99.52 4.78-.21.78-.52 1.43-.87 2.21-2.15 4.36-3.94 8.14-4.92 11.85-1.78 6.71.15 11.27 1.5 11.27.93 0 3.32-2.29 4.67-3.65 3.26-3.15 10.85-11.08 12.57-13.01l.51.21zm12.69 6.57c.52-.06 5.78-.63 6.45-.85.29-.06 1.01-.45 1.29-1.51.25-.95.46-4.45-.65-7.61-1.06-3.11-3.03-5.33-4.3-6.61 7.31-.13 13.24 8.53 11.12 16.54-.87 3.28-3.26 5.79-4.76 5.79-1.06 0-1.47-.55-2.37-2.16-.5-.83-.76-1.33-2.51-2.05-1.6-.66-3.35-.99-4.36-1.16l.1-.39zm97.12-2.68c-.07.06-.42.56-.44.61-3.96 6.17-4.42 6.84-7.94 12.17-.81 1.39-.98 1.83-1.04 2.05-.16.61-.06 3.16-.21 3.72a3.43 3.43 0 01-3.34 2.56c-4.6.01-8.47-6.74-6.57-16.62.34-1.72 2.17-9.21 2.41-10.77.64-3.88.33-4.99-.42-7.82 4.18.32 6.01 2.43 6.67 3.48.37.5.97 1.55.4 3.71-.16.61-.4 1.11-.68 1.72-1.67 3.39-3.06 6.33-3.83 9.22-1.38 5.22.11 8.76 1.17 8.76.72 0 2.58-1.78 3.63-2.84 2.54-2.45 8.44-8.62 9.78-10.12l.4.16zm9.87 5.11c.4-.05 4.49-.49 5.01-.66.23-.04.79-.35 1-1.17.19-.74.35-3.46-.5-5.92-.83-2.42-2.36-4.15-3.35-5.14 5.69-.1 10.3 6.63 8.65 12.86-.68 2.55-2.53 4.5-3.7 4.5-.82 0-1.14-.43-1.85-1.68-.39-.65-.59-1.04-1.95-1.6-1.25-.51-2.6-.77-3.39-.9l.08-.3zm-76.98-12.78c-2.57 9.69 8.82 9.72 13.2 9.71 5.3-.01 9.13-.52 14.58-1.76.59-.12 1.03-.19 1.71-.19 2.16 0 5.75 1.53 5.1 3.99-.52 1.97-2.52 2.78-3.69 3.22-3.33 1.18-11.61 1.26-16.05 1.27-4.25.01-11.31-.1-15.58-3.04-1.98-1.35-5.09-4.49-3.74-9.61.77-2.9 3.92-7.35 7.09-8.83-1.72 2.78-2.17 3.52-2.62 5.25zm12.43-14.09c1.26-.8 6.74-4.27 7.86-5.02.28-.12.89-.56.94-.74.1-.37-.61-.49-.79-.49-5.23-.72-7.9-2.26-9.38-4.11-1.65-1.91-1.23-4.19-.98-5.36 2.63 3.08 5.42 4.18 14.05 4.16 1.11 0 5.9-.2 6.89-.2 4.5-.01 7.19 2.63 6.53 5.1-.67 2.53-3.51 2.54-5.05 2.54-4.99.01-8.39.02-19.94 4.55l-.13-.43zm100.99 30.99c9.28-3.34 20.65-10.05 23.92-22.4 2.2-8.29-1.14-15.31-12.22-15.28-1.6 0-2.09.12-2.83.35.95.51 1.93 1.14 2.83 2.45.7 1.03.98 2.34.69 3.43-.54 2.06-6.78 10.3-8.94 13.05-1.89 2.41-10.22 12.71-14.03 14.38-.59.29-1.13.4-1.65.4-1.77 0-2.21-1.14-3.1-3.59-.44-1.14-.48-1.2-1.63-2.45-1.34-1.43-1.46-4.17-.75-6.86 3.35-12.64 16.96-23.07 31.25-23.11 11.03-.03 20.06 6.4 16.81 18.64-1.53 5.77-5.06 10.7-10.66 14.6-7.01 4.87-16.11 6.27-19.68 6.79v-.4zm-12.53-17.34c-.64 2.4-1.04 8 1.36 8 2.28 0 6.72-5.96 10.35-10.83 2.04-2.75 7.22-9.79 8.1-13.1.51-1.94-.12-3.2-.39-3.71-7.14 1.96-16.92 10.21-19.42 19.65z"/><path d="M343.42 190.36l2.93-2.72c.51-.57.87-.86 1.37-.86.28 0 .71.28.99.57l3.97 3.56c.23.21.71.57.48 1.42-.25.93-1.79 1.93-3.5 3-.87 3.28-2.45 9.49-3.2 12.35-.61 2.29-1.74 7.35-2.29 9.42-.78 2.93-2.86 4.07-5.79 4.08-2.5 0-2.37-1.28-1.93-2.92l.09-.36-11.34.03-3.22 12.13 12.48-.03 4.2-4.29c.6-.64.96-.93 1.39-.93.43 0 .92.57 1.1.71l3.84 4.34c.26.35.54.64.43 1.07-.19.71-.85.79-1.28.79l-22.61.06-6.6 23.71-7.2.02 6.6-23.71-15.19.04c-4.35.01-5.96.16-7.83.52l-.44-2.64c4.31.42 9.3.4 10.01.4l13.91-.04 3.22-12.13-11.27.03a8.1 8.1 0 01-.27 1.28c-.74 2.78-4.43 3.79-5.78 3.8-2.78 0-2.27-1.92-1.97-3.06.55-2.07 3.1-11.42 3.59-13.27.81-3.07 3.75-14.42 4.09-16.77.16-.85.18-1.5.3-3.28l7.84 3.76 28.89-.08zm-29.84 1.79l-2.97 11.2 11.27-.03 2.97-11.2-11.27.03zm-3.42 12.92l-2.97 11.2 11.27-.03 2.97-11.2-11.27.03zm30.26-1.79l2.97-11.2-11.34.03-2.97 11.2 11.34-.03zM337 216.19l2.97-11.2-11.34.03-2.97 11.2 11.34-.03z" stroke-width="0" fill="url(#linear-gradient)"/><path class="cls-2" d="M68.47 262.45l289.37-.75s-27.83-23.18-45.64-16.58c-30.67 11.36-39.24 13.19-48.28 10.96-5-1.24-18.54-11.24-26.66-11.21-8.12.02-15.79 4.55-19.39 6.82-3.61 2.27-15.79 5.01-20.75 5.02-4.97.01-33.41-3.07-43.8-4.4-10.39-1.33-13.1-.87-20.76 1.41-7.67 2.28-35.19 7.31-64.08 8.74z"/><path class="cls-3" d="M224.96 149.1c.02 7.48-6.03 13.56-13.51 13.58-7.48.02-13.56-6.03-13.58-13.5-.02-7.48 6.03-13.56 13.51-13.58 7.48-.02 13.55 6.03 13.58 13.51z"/><path class="cls-3" d="M235.02 162.62s-19.43 15.52-43.62.11c-24.19-15.41-43.1.11-43.1.11s20.16-9.4 42.34 5.65c20.03 13.6 35.07 5.37 44.39-5.88z"/><path class="cls-3" d="M187.88 162.74s19.52 15.42 43.62-.11c24.11-15.54 43.1-.11 43.1-.11s-20.21-9.3-42.31 5.88c-19.96 13.7-35.04 5.55-44.42-5.65z"/></svg>