<svg width="69" height="69" viewBox="0 0 69 69" fill="none" xmlns="http://www.w3.org/2000/svg">
<path d="M10.7812 28.5703V60.375C10.7812 60.9469 11.0084 61.4953 11.4128 61.8997C11.8172 62.3041 12.3656 62.5312 12.9375 62.5312H25.875V44.2031C25.875 43.3453 26.2158 42.5226 26.8223 41.9161C27.4289 41.3095 28.2516 40.9688 29.1094 40.9688H39.8906C40.7484 40.9688 41.5711 41.3095 42.1777 41.9161C42.7842 42.5226 43.125 43.3453 43.125 44.2031V62.5312H56.0625C56.6344 62.5312 57.1828 62.3041 57.5872 61.8997C57.9916 61.4953 58.2188 60.9469 58.2188 60.375V28.5703" stroke="#F24E1E" stroke-width="1.875" stroke-linecap="round" stroke-linejoin="round"/>
<path d="M64.6875 34.5L35.9676 7.00781C35.2938 6.29625 33.7184 6.28816 33.0324 7.00781L4.3125 34.5M53.9062 24.123V8.625H47.4375V17.9238" stroke="#F24E1E" stroke-width="1.875" stroke-linecap="round" stroke-linejoin="round"/>
</svg>
