<svg width="38" height="53" viewBox="0 0 38 53" fill="none" xmlns="http://www.w3.org/2000/svg">
<path d="M35.254 43.6664C34.1072 41.6305 30.906 38.2387 29.3001 36.7849C27.2084 34.8931 27.036 34.7381 24.7367 35.6306C23.2029 36.2263 22.1237 36.8387 20.7211 36.1106C19.3185 35.3826 16.5738 32.6992 14.5167 29.0925C12.4596 25.4857 11.4811 21.632 11.5712 20.0592C11.6612 18.4864 12.751 17.8866 14.0398 16.8686C15.8563 15.4336 15.8389 15.1063 15.3782 12.367C15.0178 10.2359 13.6646 5.76721 12.4943 3.74636C11.2443 1.57776 11.1618 1.87756 9.92887 2.03263C8.92386 2.16356 7.93295 2.38626 6.96856 2.69792C5.07705 3.31992 3.94663 3.95797 2.96088 5.11318C1.97513 6.2684 0.840293 9.30052 2.44228 16.005C4.04427 22.7096 5.4732 26.3057 8.84954 32.228C12.2259 38.1504 15.1176 41.6311 19.5416 46.0056C25.0156 51.4122 27.6926 51.3892 29.1934 51.1359C30.6942 50.8825 31.8228 50.2472 33.3274 48.9414C34.0898 48.2742 34.7891 47.5383 35.4165 46.7428C36.1807 45.7675 36.4805 45.85 35.254 43.6664Z" stroke="white" stroke-width="1.875" stroke-miterlimit="10"/>
</svg>
