<svg width="53" height="45" viewBox="0 0 53 45" fill="none" xmlns="http://www.w3.org/2000/svg">
<path d="M49.2492 11.864L27.83 1.31026C27.4156 1.10616 26.9597 1 26.4975 1C26.0354 1 25.5795 1.10616 25.1651 1.31026L3.74589 11.864C2.92475 12.2657 2.23247 12.8886 1.74725 13.6623C1.26203 14.436 1.0032 15.3298 1 16.2427V38.8347C1 41.538 3.22368 43.7297 5.96712 43.7297H47.0329C49.7763 43.7297 52 41.538 52 38.8347V16.2427C51.9963 15.3293 51.7368 14.4352 51.2507 13.6614C50.7645 12.8876 50.0713 12.265 49.2492 11.864Z" stroke="white" stroke-width="1.875" stroke-linecap="round" stroke-linejoin="round"/>
<path d="M44.5913 36.8378L28.3519 24.2395C27.8226 23.8288 27.1712 23.6059 26.5007 23.6059C25.8301 23.6059 25.1787 23.8288 24.6495 24.2395L8.40882 36.8378M33.5355 27.6904L50.6217 14.7838M2.37842 14.7838L19.8415 27.941" stroke="white" stroke-width="1.875" stroke-linecap="round" stroke-linejoin="round"/>
</svg>
