<svg width="54" height="54" viewBox="0 0 54 54" fill="none" xmlns="http://www.w3.org/2000/svg">
<path d="M45.4571 33.8133C45.3517 33.4336 45.5837 32.9062 45.8052 32.5266C45.8729 32.4136 45.9468 32.3044 46.0267 32.1996C47.9212 29.3845 48.9345 26.069 48.9376 22.6758C48.9692 12.9516 40.7638 5.0625 30.6177 5.0625C21.7688 5.0625 14.386 11.0848 12.6563 19.0793C12.3976 20.2642 12.2668 21.4735 12.2661 22.6863C12.2661 32.4211 20.1552 40.5211 30.3013 40.5211C31.9149 40.5211 34.0876 40.0359 35.2794 39.709C36.4712 39.382 37.6524 38.9496 37.9583 38.8336C38.2718 38.7154 38.6041 38.6546 38.9392 38.6543C39.3048 38.6529 39.6669 38.7246 40.0044 38.8652L45.9845 40.9852C46.1156 41.0406 46.2542 41.0762 46.3958 41.0906C46.6196 41.0906 46.8342 41.0017 46.9924 40.8435C47.1507 40.6853 47.2396 40.4707 47.2396 40.2469C47.2322 40.1503 47.2145 40.0549 47.1868 39.9621L45.4571 33.8133Z" stroke="#F24E1E" stroke-width="1.875" stroke-miterlimit="10" stroke-linecap="round"/>
<path d="M7.00952 24.4688C5.62622 26.9539 4.95706 29.7731 5.07599 32.6147C5.19493 35.4564 6.09734 38.2098 7.68346 40.5707C7.9271 40.9388 8.0642 41.2235 8.02202 41.4144C7.97983 41.6053 6.76377 47.9398 6.76377 47.9398C6.73453 48.088 6.74562 48.2414 6.7959 48.3839C6.84618 48.5263 6.93379 48.6527 7.04959 48.7498C7.20411 48.8729 7.39625 48.9392 7.59381 48.9375C7.69939 48.9378 7.80388 48.9162 7.90073 48.8742L13.8291 46.5539C14.2371 46.393 14.6923 46.4006 15.0948 46.575C17.0923 47.3534 19.3008 47.8406 21.5104 47.8406C24.4754 47.8438 27.3884 47.0618 29.9532 45.5741" stroke="#F24E1E" stroke-width="1.875" stroke-miterlimit="10" stroke-linecap="round"/>
</svg>
