<svg width="64" height="69" viewBox="0 0 64 69" fill="none" xmlns="http://www.w3.org/2000/svg">
<path d="M32 0C14.334 0 0 9.93569 0 22.1786C0 41.8929 32 69 32 69C32 69 64 41.8929 64 22.1786C64 9.93569 49.666 0 32 0ZM32 34.5C29.4684 34.5 26.9937 33.9219 24.8887 32.8388C22.7838 31.7557 21.1431 30.2162 20.1743 28.415C19.2055 26.6139 18.9521 24.6319 19.4459 22.7198C19.9398 20.8077 21.1589 19.0513 22.949 17.6728C24.7391 16.2943 27.0199 15.3555 29.5028 14.9751C31.9858 14.5948 34.5595 14.79 36.8983 15.536C39.2372 16.2821 41.2363 17.5455 42.6428 19.1665C44.0493 20.7875 44.8 22.6933 44.8 24.6429C44.7963 27.2563 43.4465 29.7618 41.0469 31.6098C38.6472 33.4577 35.3936 34.4971 32 34.5Z" fill="#F24E1E"/>
</svg>
