<svg width="43" height="67" viewBox="0 0 43 67" fill="none" xmlns="http://www.w3.org/2000/svg">
<path d="M21.5 0C9.63066 0 0 9.64769 0 21.5357C0 40.6785 21.5 66.9999 21.5 66.9999C21.5 66.9999 43 40.6785 43 21.5357C43 9.64769 33.3693 0 21.5 0ZM21.5 33.5C19.7991 33.5 18.1364 32.9386 16.7221 31.8869C15.3078 30.8352 14.2055 29.3403 13.5546 27.5914C12.9037 25.8424 12.7334 23.9179 13.0652 22.0613C13.3971 20.2046 14.2162 18.4991 15.4189 17.1605C16.6216 15.8219 18.154 14.9104 19.8222 14.541C21.4905 14.1717 23.2196 14.3613 24.7911 15.0857C26.3625 15.8101 27.7057 17.0369 28.6506 18.611C29.5956 20.185 30.1 22.0355 30.1 23.9285C30.0975 26.4662 29.1906 28.8991 27.5784 30.6935C25.9661 32.4879 23.7801 33.4972 21.5 33.5Z" fill="#F24E1E"/>
</svg>
