<svg fill="none" height="30" viewBox="0 0 29 30" width="29" xmlns="http://www.w3.org/2000/svg"><path d="m14.5 0c-7.99522 0-14.5 6.72909-14.5 15 0 8.2709 6.50478 15 14.5 15 7.9952 0 14.5-6.7291 14.5-15 0-8.27091-6.5048-15-14.5-15zm5.2068 18.2322c-.6539.825-1.8404 2.144-4.5801 4.068-.1848.1309-.4035.201-.6274.201s-.4426-.0701-.6274-.201c-2.7397-1.924-3.92616-3.2452-4.58005-4.068-1.39423-1.7574-2.06207-3.5625-2.04255-5.5168.02161-2.2399 1.75813-4.06227 3.8711-4.06227 1.4221 0 2.4399.76658 3.0743 1.47187.0391.0428.0862.0768.1384.1001.0523.0233.1086.0353.1655.0353s.1132-.012.1655-.0353c.0522-.0233.0994-.0573.1384-.1001.6351-.70529 1.6522-1.47187 3.0743-1.47187 2.113 0 3.8495 1.82237 3.8711 4.06227.0209 1.9543-.6476 3.7594-2.0411 5.5168z" fill="#f24e1e"/></svg>