<svg width="37" height="37" viewBox="0 0 37 37" fill="none" xmlns="http://www.w3.org/2000/svg">
<g filter="url(#filter0_d_1623_2345)">
<path d="M5.46458 18.3177L5.18861 17.8413C5.09621 17.6814 5.03622 17.5049 5.01207 17.3217C4.98792 17.1386 5.00008 16.9525 5.04785 16.7741C5.09563 16.5957 5.17808 16.4285 5.2905 16.2819C5.40292 16.1354 5.54311 16.0124 5.70306 15.9201L10.7931 12.9863C10.8998 12.9244 11.0177 12.8842 11.14 12.868C11.2622 12.8518 11.3865 12.8599 11.5057 12.8918C11.6248 12.9236 11.7365 12.9787 11.8343 13.0539C11.9321 13.129 12.0142 13.2227 12.0757 13.3296L12.8204 14.6187C12.9446 14.834 12.9782 15.0898 12.9138 15.3299C12.8494 15.57 12.6923 15.7747 12.4771 15.899L7.38822 18.8328C7.06473 19.0191 6.68053 19.0695 6.31991 18.973C5.95928 18.8764 5.65168 18.6408 5.46458 18.3177Z" stroke="#F24E1E" stroke-width="1.875" stroke-linecap="round" stroke-linejoin="round"/>
<path d="M10.6011 27.2497L16.2343 15.0628M19.0509 14.1259L24.7198 25.3747M13.1259 15.163L11.7454 12.7771C11.5591 12.454 11.5087 12.0701 11.6054 11.7099C11.7021 11.3497 11.938 11.0427 12.261 10.8563L19.5536 6.65225C19.6603 6.59039 19.7782 6.5502 19.9005 6.53398C20.0228 6.51776 20.147 6.52583 20.2662 6.55773C20.3853 6.58963 20.497 6.64473 20.5948 6.71986C20.6927 6.795 20.7747 6.88871 20.8362 6.99561L22.686 10.1942C22.8101 10.4094 22.8438 10.6649 22.7796 10.9049C22.7155 11.1448 22.5588 11.3494 22.3438 11.4739L15.0495 15.6774C14.8895 15.7702 14.7127 15.8305 14.5294 15.8548C14.346 15.8792 14.1596 15.8671 13.981 15.8193C13.8023 15.7715 13.6348 15.689 13.488 15.5763C13.3413 15.4637 13.2182 15.3232 13.1259 15.163ZM23.1554 10.9729L20.4302 6.26025C20.2439 5.93718 20.1935 5.55331 20.2902 5.19311C20.3869 4.83291 20.6227 4.52588 20.9458 4.33955L26.412 1.18838C26.7355 1.00195 27.1198 0.95142 27.4805 1.04786C27.8412 1.1443 28.1489 1.37984 28.3362 1.70283L31.0614 6.41553C31.1538 6.57552 31.2137 6.75215 31.2378 6.93531C31.2618 7.11847 31.2496 7.30458 31.2017 7.483C31.1538 7.66142 31.0712 7.82866 30.9587 7.97516C30.8461 8.12166 30.7058 8.24456 30.5458 8.33682L25.0796 11.488C24.756 11.6745 24.3717 11.7251 24.0109 11.6285C23.6502 11.5319 23.3425 11.2962 23.1554 10.9729Z" stroke="#F24E1E" stroke-width="1.875" stroke-linecap="round" stroke-linejoin="round"/>
</g>
<defs>
<filter id="filter0_d_1623_2345" x="0.0625" y="0.0625" width="36.1248" height="36.125" filterUnits="userSpaceOnUse" color-interpolation-filters="sRGB">
<feFlood flood-opacity="0" result="BackgroundImageFix"/>
<feColorMatrix in="SourceAlpha" type="matrix" values="0 0 0 0 0 0 0 0 0 0 0 0 0 0 0 0 0 0 127 0" result="hardAlpha"/>
<feOffset dy="4"/>
<feGaussianBlur stdDeviation="2"/>
<feComposite in2="hardAlpha" operator="out"/>
<feColorMatrix type="matrix" values="0 0 0 0 0 0 0 0 0 0 0 0 0 0 0 0 0 0 0.25 0"/>
<feBlend mode="normal" in2="BackgroundImageFix" result="effect1_dropShadow_1623_2345"/>
<feBlend mode="normal" in="SourceGraphic" in2="effect1_dropShadow_1623_2345" result="shape"/>
</filter>
</defs>
</svg>
