<svg width="59" height="51" viewBox="0 0 59 51" fill="none" xmlns="http://www.w3.org/2000/svg">
<path d="M39.2812 10.2865V49.2836M19.5938 1.00149V39.9985M37.2674 9.89653L21.6076 1.39146C20.9847 1.12732 20.2965 0.9932 19.6003 1.00027C18.904 1.00733 18.2198 1.15537 17.6045 1.43209L2.16348 10.2273C1.81219 10.3853 1.51825 10.6216 1.31326 10.9107C1.10826 11.1999 0.999965 11.531 1 11.8684V46.1998C0.999967 46.52 1.0975 46.8348 1.28312 47.1136C1.46874 47.3924 1.73613 47.6258 2.05934 47.7909C2.38255 47.9561 2.75058 48.0475 3.12769 48.0562C3.5048 48.065 3.87816 47.9908 4.21152 47.8409L17.5854 40.4373C18.2057 40.1583 18.896 40.0101 19.5979 40.0052C20.2999 40.0004 20.993 40.139 21.6186 40.4094L36.9119 48.882C37.532 49.1502 38.2186 49.289 38.9146 49.2868C39.6106 49.2846 40.2959 49.1414 40.9137 48.8692L56.6951 40.0554C57.0507 39.8988 57.3488 39.6622 57.5568 39.3716C57.7649 39.081 57.875 38.7474 57.875 38.4073V4.08528C57.875 3.76503 57.7775 3.45021 57.5919 3.17141C57.4063 2.8926 57.1389 2.65929 56.8157 2.49412C56.4924 2.32896 56.1244 2.23756 55.7473 2.22881C55.3702 2.22005 54.9968 2.29423 54.6635 2.44415L41.265 9.85591C40.6504 10.1319 39.9672 10.2795 39.272 10.2865C38.5768 10.2936 37.8896 10.1599 37.2674 9.89653Z" stroke="#F24E1E" stroke-width="1.875" stroke-linecap="round" stroke-linejoin="round"/>
</svg>
