<svg width="25" height="30" viewBox="0 0 25 30" fill="none" xmlns="http://www.w3.org/2000/svg">
<path d="M12.5 0C5.59922 0 0 4.22413 0 9.42915C0 17.8106 12.5 29.3351 12.5 29.3351C12.5 29.3351 25 17.8106 25 9.42915C25 4.22413 19.4008 0 12.5 0ZM12.5 14.6676C11.5111 14.6676 10.5444 14.4218 9.72215 13.9613C8.8999 13.5008 8.25904 12.8463 7.8806 12.0806C7.50216 11.3148 7.40315 10.4722 7.59607 9.65927C7.789 8.84634 8.2652 8.09963 8.96447 7.51354C9.66373 6.92746 10.5546 6.52833 11.5245 6.36663C12.4945 6.20493 13.4998 6.28792 14.4134 6.6051C15.327 6.92229 16.1079 7.45943 16.6573 8.14859C17.2068 8.83775 17.5 9.64799 17.5 10.4768C17.4986 11.5879 16.9713 12.6531 16.0339 13.4388C15.0966 14.2244 13.8256 14.6664 12.5 14.6676Z" fill="#F24E1E"/>
</svg>
